<?xml version="1.0" encoding="UTF-8"?>
<svg version="1.1" xmlns="http://www.w3.org/2000/svg" width="32" height="32">
<path d="M0 0 C0 1.32 0 2.64 0 4 C0.5775 4.0825 1.155 4.165 1.75 4.25 C4.84690637 5.28230212 5.98625717 6.40162216 8 9 C10.62402567 14.67236188 11.44322744 19.79481589 11 26 C9.16965945 27.83034055 6.26788008 27.13042797 3.8125 27.1328125 C2.55695312 27.13410156 1.30140625 27.13539062 0.0078125 27.13671875 C-0.64928711 27.13462402 -1.30638672 27.1325293 -1.98339844 27.13037109 C-3.99161335 27.12502234 -5.99960459 27.13031691 -8.0078125 27.13671875 C-9.26335938 27.13542969 -10.51890625 27.13414063 -11.8125 27.1328125 C-12.97394531 27.13168457 -14.13539062 27.13055664 -15.33203125 27.12939453 C-18 27 -18 27 -19 26 C-19.50095842 19.65452672 -18.38478707 15.60250153 -15.5 10 C-14.99919922 8.98099609 -14.99919922 8.98099609 -14.48828125 7.94140625 C-13.67287048 6.28728726 -12.83840272 4.64258493 -12 3 C-10.68 3 -9.36 3 -8 3 C-8 2.01 -8 1.02 -8 0 C-4.71023192 -1.09658936 -3.28696233 -0.79953138 0 0 Z M-7 2 C-6 4 -6 4 -6 4 Z M-2 2 C-1 4 -1 4 -1 4 Z M0 5 C-0.99 6.485 -0.99 6.485 -2 8 C-6.75 7.125 -6.75 7.125 -9 6 C-12.11205929 7.98512949 -12.11205929 7.98512949 -13.75 11.1875 C-13.8325 11.785625 -13.915 12.38375 -14 13 C-13.34 13 -12.68 13 -12 13 C-11.67 14.32 -11.34 15.64 -11 17 C-9.35 15.02 -7.7 13.04 -6 11 C-1.16743695 11.41421969 0.82679218 13.46413986 4 17 C4 15.68 4 14.36 4 13 C4.66 12.67 5.32 12.34 6 12 C5.34 12 4.68 12 4 12 C4.33 11.01 4.66 10.02 5 9 C3.35 7.68 1.7 6.36 0 5 Z M-5 14 C-6.66621425 15.1645201 -6.66621425 15.1645201 -8 17 C-7.76956136 19.65466049 -7.76956136 19.65466049 -7 22 C-6.34 22 -5.68 22 -5 22 C-5 22.99 -5 23.98 -5 25 C-4.34 25 -3.68 25 -3 25 C-3 24.01 -3 23.02 -3 22 C-2.01 21.67 -1.02 21.34 0 21 C-0.18828772 18.55519921 -0.18828772 18.55519921 -1 16 C-2.96758273 14.63979849 -2.96758273 14.63979849 -5 14 Z M-11 18 C-10 22 -10 22 -10 22 Z M2 19 C3 22 3 22 3 22 Z M-17 22 C-17 22.99 -17 23.98 -17 25 C-16.34 24.67 -15.68 24.34 -15 24 C-15.66 23.34 -16.32 22.68 -17 22 Z M8 22 C7.67 22.99 7.34 23.98 7 25 C7.66 25 8.32 25 9 25 C8.67 24.01 8.34 23.02 8 22 Z " fill="#000000" transform="translate(20,3)"/>
</svg>
